<?xml version="1.0" encoding="iso-8859-1"?>
<!-- Uploaded to: SVG Repo, www.svgrepo.com, Generator: SVG Repo Mixer Tools -->
<svg version="1.1" id="Layer_1" xmlns="http://www.w3.org/2000/svg" xmlns:xlink="http://www.w3.org/1999/xlink" 
	 viewBox="0 0 512 512" xml:space="preserve">
<polyline style="fill:#FAEDD6;" points="307.397,118.737 504.115,246.803 504.115,502.922 7.885,502.922 7.885,246.803 
	204.845,120.276 "/>
<polygon style="fill:#36C9A3;" points="415.905,318.837 504.031,246.803 307.397,118.737 256.702,170.615 204.839,120.271 
	7.548,246.803 95.263,318.837 95.263,214.956 415.905,214.956 "/>
<polygon style="fill:#FFFFFF;" points="415.905,318.837 415.905,214.956 95.263,214.956 95.263,318.837 183.635,390.814 
	207.978,374.752 304.022,374.752 327.949,390.814 "/>
<g>
	<path style="fill:#FA004B;" d="M333.125,22.82c-19.086-19.087-45.098-17.912-64.183,1.175l-12.218,12.218l-12.218-12.218
		C225.419,4.908,195.215,3.733,176.13,22.82c-19.086,19.086-19.086,50.491,0,69.578l80.595,78.218l0,0l76.402-78.218
		C352.211,73.311,352.211,41.905,333.125,22.82z"/>
	<rect x="127.857" y="247.546" style="fill:#FA004B;" width="95.667" height="15.769"/>
	<rect x="127.857" y="287.495" style="fill:#FA004B;" width="72.539" height="15.769"/>
	<rect x="216.165" y="287.495" style="fill:#FA004B;" width="167.154" height="15.769"/>
	<rect x="159.396" y="326.392" style="fill:#FA004B;" width="193.436" height="15.769"/>
	<rect x="320.242" y="247.546" style="fill:#FA004B;" width="14.718" height="15.769"/>
	<rect x="344.422" y="247.546" style="fill:#FA004B;" width="15.769" height="15.769"/>
	<rect x="367.55" y="247.546" style="fill:#FA004B;" width="15.769" height="15.769"/>
	<rect x="247.704" y="454.649" style="fill:#FA004B;" width="16.821" height="15.769"/>
	<rect x="223.524" y="454.649" style="fill:#FA004B;" width="16.821" height="15.769"/>
	<rect x="271.883" y="454.649" style="fill:#FA004B;" width="15.769" height="15.769"/>
</g>
<path style="fill:#232323;" d="M319.09,118.049l19.61-20.076c10.72-10.72,16.624-25.055,16.624-40.364
	c0-15.31-5.903-29.644-16.624-40.364C327.847,6.392,314.773,0.85,300.827,1.21c-13.41,0.35-26.714,6.461-37.463,17.21l-6.641,6.643
	l-6.643-6.643C239.334,7.674,225.28,1.562,210.504,1.21c-15.051-0.368-29.252,5.335-39.951,16.034
	c-22.257,22.257-22.257,58.471,0,80.728l21.353,20.723L0,242.506v268.301h512V242.506L319.09,118.049z M169.704,389.388
	l-153.934,98.64V263.441L169.704,389.388z M407.495,315.669l-79.174,64.779l-21.987-14.106H205.668l-21.999,14.098l-79.995-65.451
	v-92.674h303.821L407.495,315.669L407.495,315.669z M210.288,382.111h91.423l176.011,112.927H34.058L210.288,382.111z
	 M342.278,389.402l153.952-125.961v224.736L342.278,389.402z M181.704,28.395c7.62-7.62,17.703-11.673,28.425-11.42
	c10.706,0.255,20.934,4.729,28.801,12.595l17.794,17.793l17.793-17.793c7.993-7.993,17.234-12.348,26.722-12.595
	c9.531-0.258,18.593,3.702,26.311,11.42c7.742,7.742,12.006,18.117,12.006,29.214s-4.264,21.471-12.07,29.279l-70.91,72.595
	l-74.909-72.701C165.595,70.672,165.609,44.49,181.704,28.395z M256.872,181.746l50.974-52.186l169.842,109.575h-21.833v15.769
	h25.908l-58.498,47.862v-47.862h17.872v-15.769h-17.872v-32.59H87.905v32.59H72.136v15.769h15.769v47.181l-57.666-47.181h26.127
	v-15.769H34.313l169.209-109.168L256.872,181.746z"/>
</svg>